<?xml version="1.0" encoding="UTF-8" standalone="no"?>
<!DOCTYPE svg PUBLIC "-//W3C//DTD SVG 1.1//EN" "http://www.w3.org/Graphics/SVG/1.1/DTD/svg11.dtd">
<svg width="100%" height="100%" viewBox="0 0 18 18" version="1.1" xmlns="http://www.w3.org/2000/svg" xmlns:xlink="http://www.w3.org/1999/xlink" xml:space="preserve" xmlns:serif="http://www.serif.com/" style="fill-rule:evenodd;clip-rule:evenodd;stroke-linejoin:round;stroke-miterlimit:2;">
    <g transform="matrix(1,0,0,1,-480,-100)">
        <g transform="matrix(2.339062,0,0,1.85463,0,0)">
            <g transform="matrix(0.427522,0,0,0.539191,-179.559118,0)">
                <g transform="matrix(0.45,0,0,0.225,360,-17)">
                    <rect x="1200" y="520" width="40" height="80" style="fill:none;"/>
                </g>
                <g transform="matrix(0.090094,0,0,0.090094,824.235707,100.383043)">
                    <g transform="matrix(5.241459,0,0,5.241459,-3876.362812,-1938.350002)">
                        <path d="M916.568,404.943C912.318,404.604 908.309,402.764 905.272,399.728C901.896,396.352 900,391.774 900,387L900,386.839C900,376.987 907.987,369 917.839,369L918.161,369C928.013,369 936,376.987 936,386.839L936,387.004C936,390.76 934.826,394.395 932.681,397.418L920.361,385.201C919.723,384.568 918.766,384.381 917.935,384.727C917.105,385.073 916.564,385.884 916.564,386.783L916.567,404.892C916.567,404.909 916.567,404.926 916.568,404.943Z" style="fill:white;fill-opacity:0.25;"/>
                    </g>
                    <g transform="matrix(11.09956,0,0,11.09956,-8926.662775,-1114.207646)">
                        <path d="M889.615,107.651L895.689,113.674C895.976,113.958 896.074,114.382 895.942,114.764C895.811,115.146 895.472,115.419 895.07,115.466C894.072,115.585 893.085,115.841 892.14,116.235C891.195,116.628 890.318,117.147 889.529,117.771C889.213,118.023 888.781,118.071 888.418,117.896C888.062,117.724 887.833,117.367 887.824,116.973C887.823,116.965 887.823,116.957 887.823,116.949L887.822,108.398C887.822,107.973 888.077,107.59 888.47,107.426C888.862,107.263 889.313,107.352 889.615,107.651Z" style="fill:white;fill-opacity:0.5;"/>
                    </g>
                </g>
            </g>
        </g>
    </g>
</svg>
